<?xml version="1.0" encoding="UTF-8"?>
<svg version="1.1" xmlns="http://www.w3.org/2000/svg" width="569" height="208">
<path d="M0 0 C4.75087311 1.46845169 4.75087311 1.46845169 7 3 C8.1875 6.4375 8.1875 6.4375 8 10 C6.0625 12.4375 6.0625 12.4375 4 14 C4.690303 17.00281178 4.690303 17.00281178 6.625 18.25 C8 20 8 20 7.8125 23.5625 C7 27 7 27 5 29 C5 29.99 5 30.98 5 32 C5.7734375 32.61875 5.7734375 32.61875 6.5625 33.25 C8 35 8 35 7.875 38.5625 C7 42 7 42 4 44 C4.690303 47.00281178 4.690303 47.00281178 6.625 48.25 C8 50 8 50 7.8125 53.375 C7.1216481 56.45726232 6.30284088 59.13375006 5 62 C5.7734375 62.5259375 5.7734375 62.5259375 6.5625 63.0625 C8 65 8 65 7.9375 68.5625 C7 72 7 72 5.25 73.5 C1.69263693 74.29052513 -0.76640915 73.74015451 -3.875 71.875 C-5.67626472 68.87289213 -4.68453372 66.29820792 -4 63 C-2.02 62.505 -2.02 62.505 0 62 C-0.66 60.35 -1.32 58.7 -2 57 C-2.66 57 -3.32 57 -4 57 C-4.6875 53.6875 -4.6875 53.6875 -5 50 C-3.6875 48.0625 -3.6875 48.0625 -2 47 C-1.34 47 -0.68 47 0 47 C0 45.68 0 44.36 0 43 C-1.32 42.67 -2.64 42.34 -4 42 C-4.6875 38.6875 -4.6875 38.6875 -5 35 C-3.6875 33.0625 -3.6875 33.0625 -2 32 C-1.34 32 -0.68 32 0 32 C0 30.68 0 29.36 0 28 C-1.32 27.67 -2.64 27.34 -4 27 C-4.6875 23.6875 -4.6875 23.6875 -5 20 C-3.6875 18.0625 -3.6875 18.0625 -2 17 C-1.34 17 -0.68 17 0 17 C0 16.01 0 15.02 0 14 C-0.639375 13.814375 -1.27875 13.62875 -1.9375 13.4375 C-4 12 -4 12 -4.9375 8.5625 C-5 5 -5 5 -3.6875 3.0625 C-2 2 -2 2 0 2 C0 1.34 0 0.68 0 0 Z " fill="#C4C4C4" transform="translate(76,70)"/>
<path d="M0 0 C1.875 1.125 1.875 1.125 3 3 C2.875 6.5625 2.875 6.5625 2 10 C1.01 10.66 0.02 11.32 -1 12 C-0.67 13.32 -0.34 14.64 0 16 C0.66 16 1.32 16 2 16 C2.75 19.25 2.75 19.25 3 23 C1.0625 25.4375 1.0625 25.4375 -1 27 C-0.309697 30.00281178 -0.309697 30.00281178 1.625 31.25 C3 33 3 33 2.8125 36.5625 C2 40 2 40 0 42 C0 42.99 0 43.98 0 45 C0.7734375 45.61875 0.7734375 45.61875 1.5625 46.25 C3 48 3 48 2.6875 51.6875 C2.460625 52.780625 2.23375 53.87375 2 55 C0.02 55.495 0.02 55.495 -2 56 C-2 56.66 -2 57.32 -2 58 C-1.34 58.33 -0.68 58.66 0 59 C-0.99 59 -1.98 59 -3 59 C-3 58.34 -3 57.68 -3 57 C-4.98 56.34 -6.96 55.68 -9 55 C-9.6875 51.6875 -9.6875 51.6875 -10 48 C-8.6875 46.0625 -8.6875 46.0625 -7 45 C-6.34 45 -5.68 45 -5 45 C-5 44.01 -5 43.02 -5 42 C-5.9590625 41.7215625 -5.9590625 41.7215625 -6.9375 41.4375 C-9 40 -9 40 -9.9375 36.5625 C-10 33 -10 33 -8.6875 31.0625 C-7 30 -7 30 -5 30 C-5 29.01 -5 28.02 -5 27 C-5.639375 26.814375 -6.27875 26.62875 -6.9375 26.4375 C-9 25 -9 25 -9.9375 21.5625 C-10 18 -10 18 -8.6875 16.0625 C-7 15 -7 15 -5 15 C-5 14.01 -5 13.02 -5 12 C-5.639375 11.814375 -6.27875 11.62875 -6.9375 11.4375 C-9 10 -9 10 -9.9375 6.5625 C-10 3 -10 3 -8.6875 1.125 C-5.358359 -1.09442733 -3.86100026 -1.13004886 0 0 Z " fill="#A8A8A8" transform="translate(171,57)"/>
<path d="M0 0 C0.6875 3.3125 0.6875 3.3125 1 7 C-0.3125 8.9375 -0.3125 8.9375 -2 10 C-2.66 10 -3.32 10 -4 10 C-4 10.99 -4 11.98 -4 13 C-3.360625 13.185625 -2.72125 13.37125 -2.0625 13.5625 C0 15 0 15 0.8125 18.5 C1 22 1 22 0 24 C-0.66 24 -1.32 24 -2 24 C-1.45276317 27.37462715 -0.9451 29.08235 1 32 C0.8125 35.5625 0.8125 35.5625 0 39 C-0.99 39.66 -1.98 40.32 -3 41 C-2.309697 44.00281178 -2.309697 44.00281178 -0.375 45.25 C1 47 1 47 0.9375 50.5625 C0 54 0 54 -1.75 55.5 C-5.30736307 56.29052513 -7.76640915 55.74015451 -10.875 53.875 C-12 52 -12 52 -12 48.5 C-11 45 -11 45 -8.4375 43.0625 C-7.633125 42.711875 -6.82875 42.36125 -6 42 C-7.2065625 41.4740625 -7.2065625 41.4740625 -8.4375 40.9375 C-11 39 -11 39 -12 35.5 C-12 32 -12 32 -10.5625 30.3125 C-10.046875 29.879375 -9.53125 29.44625 -9 29 C-9 27.68 -9 26.36 -9 25 C-9.7734375 24.3503125 -9.7734375 24.3503125 -10.5625 23.6875 C-11.036875 23.130625 -11.51125 22.57375 -12 22 C-11.6875 18.3125 -11.6875 18.3125 -11 15 C-9.68 14.67 -8.36 14.34 -7 14 C-7 12.68 -7 11.36 -7 10 C-7.639375 9.690625 -8.27875 9.38125 -8.9375 9.0625 C-11 8 -11 8 -12 7 C-11.65239852 0.62730627 -11.65239852 0.62730627 -9.375 -1.5625 C-5.90246994 -2.20217659 -3.2850863 -1.13714526 0 0 Z " fill="#B9B9B9" transform="translate(473,73)"/>
<path d="M0 0 C0.6875 3.3125 0.6875 3.3125 1 7 C-0.3125 8.9375 -0.3125 8.9375 -2 10 C-2.66 10 -3.32 10 -4 10 C-4 11.32 -4 12.64 -4 14 C-2.68 14.33 -1.36 14.66 0 15 C0.6875 18.3125 0.6875 18.3125 1 22 C-0.3125 23.9375 -0.3125 23.9375 -2 25 C-2.66 25 -3.32 25 -4 25 C-2.98409482 27.26625003 -2.29657273 28.76933232 -0.3125 30.3125 C1 32 1 32 0.6875 35.6875 C0.460625 36.780625 0.23375 37.87375 0 39 C-0.66 39 -1.32 39 -2 39 C-2 39.99 -2 40.98 -2 42 C-3.65 42 -5.3 42 -7 42 C-7 41.34 -7 40.68 -7 40 C-8.32 39.67 -9.64 39.34 -11 39 C-11.6875 35.6875 -11.6875 35.6875 -12 32 C-10.33468048 29.58528669 -8.48430816 28.65620544 -6 27 C-7.2065625 26.4740625 -7.2065625 26.4740625 -8.4375 25.9375 C-11 24 -11 24 -12 20.5 C-12 17 -12 17 -10.6875 15.0625 C-9 14 -9 14 -7 14 C-7 13.01 -7 12.02 -7 11 C-7.639375 10.814375 -8.27875 10.62875 -8.9375 10.4375 C-11 9 -11 9 -11.9375 5.5625 C-12 2 -12 2 -10.6875 0.125 C-6.62426104 -2.58382598 -4.57784086 -1.44117212 0 0 Z " fill="#B3B3B3" transform="translate(353,88)"/>
<path d="M0 0 C1.875 1.125 1.875 1.125 3 3 C2.6875 6.6875 2.6875 6.6875 2 10 C0.68 10.33 -0.64 10.66 -2 11 C-2 11.99 -2 12.98 -2 14 C-1.360625 14.185625 -0.72125 14.37125 -0.0625 14.5625 C2 16 2 16 3 19.375 C3 23 3 23 1 25.1875 C0.01 26.0846875 0.01 26.0846875 -1 27 C-0.86358623 29.21858253 -0.86358623 29.21858253 0 31 C0.66 31 1.32 31 2 31 C2.6875 34.3125 2.6875 34.3125 3 38 C1.6875 39.9375 1.6875 39.9375 0 41 C-0.66 41 -1.32 41 -2 41 C-2.33 41.99 -2.66 42.98 -3 44 C-3 43.34 -3 42.68 -3 42 C-4.98 41.34 -6.96 40.68 -9 40 C-10.34106208 33.53851907 -10.34106208 33.53851907 -8.8125 31.125 C-6.87054181 29.91964664 -5.24452405 29.3869869 -3 29 C-3 28.34 -3 27.68 -3 27 C-4.98 26.34 -6.96 25.68 -9 25 C-9.6875 21.6875 -9.6875 21.6875 -10 18 C-8.6875 16.0625 -8.6875 16.0625 -7 15 C-6.34 15 -5.68 15 -5 15 C-5 14.01 -5 13.02 -5 12 C-5.639375 11.814375 -6.27875 11.62875 -6.9375 11.4375 C-9 10 -9 10 -9.9375 6.5625 C-10 3 -10 3 -8.6875 1.125 C-5.358359 -1.09442733 -3.86100026 -1.13004886 0 0 Z " fill="#B1B1B1" transform="translate(426,72)"/>
<path d="M0 0 C4.80802194 1.48611587 4.80802194 1.48611587 7 3 C8.61797753 8.76404494 8.61797753 8.76404494 7 12 C6.34 12 5.68 12 5 12 C5 13.98 5 15.96 5 18 C5.66 18 6.32 18 7 18 C8.3438914 24.47511312 8.3438914 24.47511312 6.8125 26.8125 C6.214375 27.204375 5.61625 27.59625 5 28 C4.071875 28.680625 4.071875 28.680625 3.125 29.375 C1 30 1 30 -1.6875 29.0625 C-4 27 -4 27 -5 23.5 C-5 20 -5 20 -3.6875 18.1875 C-3.130625 17.795625 -2.57375 17.40375 -2 17 C-1.34 16.34 -0.68 15.68 0 15 C0 14.34 0 13.68 0 13 C-1.32 12.67 -2.64 12.34 -4 12 C-4.6875 8.6875 -4.6875 8.6875 -5 5 C-3.6875 3.0625 -3.6875 3.0625 -2 2 C-1.34 2 -0.68 2 0 2 C0 1.34 0 0.68 0 0 Z " fill="#CBCBCB" transform="translate(421,115)"/>
<path d="M0 0 C1.125 6.75 1.125 6.75 0 9 C-0.66 9 -1.32 9 -2 9 C-2 9.99 -2 10.98 -2 12 C-2.99 12.33 -3.98 12.66 -5 13 C-2.525 13.99 -2.525 13.99 0 15 C1.3438914 21.47511312 1.3438914 21.47511312 -0.1875 23.8125 C-0.785625 24.204375 -1.38375 24.59625 -2 25 C-2.928125 25.680625 -2.928125 25.680625 -3.875 26.375 C-6 27 -6 27 -8.6875 26.0625 C-11 24 -11 24 -12 20.5 C-12 17 -12 17 -10.6875 15.0625 C-9 14 -9 14 -7 14 C-7.66 12.35 -8.32 10.7 -9 9 C-9.66 9 -10.32 9 -11 9 C-11.6875 5.6875 -11.6875 5.6875 -12 2 C-8.50246261 -2.99648199 -5.30417154 -1.66983178 0 0 Z " fill="#A7A7A7" transform="translate(293,118)"/>
<path d="M0 0 C0.75 3.25 0.75 3.25 1 7 C-0.9375 9.4375 -0.9375 9.4375 -3 11 C-2.309697 14.00281178 -2.309697 14.00281178 -0.375 15.25 C1 17 1 17 0.9375 20.5625 C0 24 0 24 -1.75 25.5 C-5.30736307 26.29052513 -7.76640915 25.74015451 -10.875 23.875 C-12.67626472 20.87289213 -11.68453372 18.29820792 -11 15 C-9.68 14.67 -8.36 14.34 -7 14 C-7 13.01 -7 12.02 -7 11 C-7.639375 10.814375 -8.27875 10.62875 -8.9375 10.4375 C-11 9 -11 9 -11.9375 5.5625 C-12 2 -12 2 -10.6875 0.125 C-6.62426104 -2.58382598 -4.57784086 -1.44117212 0 0 Z " fill="#B4B4B4" transform="translate(263,88)"/>
<path d="M0 0 C0.75 3.25 0.75 3.25 1 7 C-0.9375 9.4375 -0.9375 9.4375 -3 11 C-1.84826645 13.46800047 -0.95216435 15.04783565 1 17 C1.4375 19.375 1.4375 19.375 1 22 C-1.1875 24.375 -1.1875 24.375 -4 26 C-7.49583859 26 -8.69837552 25.26901643 -11.3125 22.9375 C-11.869375 22.298125 -12.42625 21.65875 -13 21 C-12.25 18.0625 -12.25 18.0625 -11 15 C-8.875 14.125 -8.875 14.125 -7 14 C-7 12.68 -7 11.36 -7 10 C-8.32 9.67 -9.64 9.34 -11 9 C-11.6875 5.6875 -11.6875 5.6875 -12 2 C-8.50246261 -2.99648199 -5.30417154 -1.66983178 0 0 Z " fill="#B6B6B6" transform="translate(203,88)"/>
<path d="M0 0 C1.875 1.125 1.875 1.125 3 3 C2.875 6.5625 2.875 6.5625 2 10 C1.01 10.66 0.02 11.32 -1 12 C-0.67 13.32 -0.34 14.64 0 16 C0.66 16 1.32 16 2 16 C3.32296047 22.37426409 3.32296047 22.37426409 2 24.9375 C-1.09868019 26.58367385 -3.56141649 26.36841966 -7 26 C-9 24.9375 -9 24.9375 -10 23 C-9.6875 19.3125 -9.6875 19.3125 -9 16 C-7.68 15.67 -6.36 15.34 -5 15 C-5 14.01 -5 13.02 -5 12 C-5.639375 11.814375 -6.27875 11.62875 -6.9375 11.4375 C-9 10 -9 10 -9.9375 6.5625 C-10 3 -10 3 -8.6875 1.125 C-5.358359 -1.09442733 -3.86100026 -1.13004886 0 0 Z " fill="#B4B4B4" transform="translate(171,57)"/>
<path d="M0 0 C0.6875 3.3125 0.6875 3.3125 1 7 C-0.3125 8.9375 -0.3125 8.9375 -2 10 C-2.66 10 -3.32 10 -4 10 C-4 11.32 -4 12.64 -4 14 C-2.68 14.33 -1.36 14.66 0 15 C1.3364486 21.43925234 1.3364486 21.43925234 -0.125 23.875 C-3.23359085 25.74015451 -5.69263693 26.29052513 -9.25 25.5 C-11 24 -11 24 -11.9375 20.5625 C-12 17 -12 17 -10.6875 15.0625 C-9 14 -9 14 -7 14 C-7 13.01 -7 12.02 -7 11 C-7.639375 10.814375 -8.27875 10.62875 -8.9375 10.4375 C-11 9 -11 9 -11.9375 5.5625 C-12 2 -12 2 -10.6875 0.125 C-6.62426104 -2.58382598 -4.57784086 -1.44117212 0 0 Z " fill="#B8B8B8" transform="translate(293,88)"/>
<path d="M0 0 C4.75087311 1.46845169 4.75087311 1.46845169 7 3 C8.1875 6.4375 8.1875 6.4375 8 10 C6.0625 12.4375 6.0625 12.4375 4 14 C4.690303 17.00281178 4.690303 17.00281178 6.625 18.25 C8 20 8 20 7.8125 23.625 C7.544375 24.73875 7.27625 25.8525 7 27 C3.95016004 28.52491998 1.3576631 28.23562548 -2 28 C-4 26.9375 -4 26.9375 -5 25 C-4.6875 21.3125 -4.6875 21.3125 -4 18 C-2.68 17.67 -1.36 17.34 0 17 C0 16.01 0 15.02 0 14 C-0.639375 13.814375 -1.27875 13.62875 -1.9375 13.4375 C-4 12 -4 12 -4.9375 8.5625 C-5 5 -5 5 -3.6875 3.0625 C-2 2 -2 2 0 2 C0 1.34 0 0.68 0 0 Z " fill="#B7B7B7" transform="translate(76,70)"/>
<path d="M0 0 C1.8125 1.375 1.8125 1.375 3 3 C3 3.99 3 4.98 3 6 C3.66 6 4.32 6 5 6 C5.33 4.35 5.66 2.7 6 1 C11.29230769 -1.21538462 11.29230769 -1.21538462 14.875 -0.125 C15.57625 0.24625 16.2775 0.6175 17 1 C18.3364486 7.43925234 18.3364486 7.43925234 16.875 9.875 C14.50882618 11.29470429 12.75700808 11.7982677 10 12 C7.6875 11.0625 7.6875 11.0625 6 10 C6 9.34 6 8.68 6 8 C5.22076172 8.45052734 5.22076172 8.45052734 4.42578125 8.91015625 C-1.27041112 12.01621309 -1.27041112 12.01621309 -4.8125 11.9375 C-8.61538462 10.30769231 -8.61538462 10.30769231 -10 8 C-9.9375 4.4375 -9.9375 4.4375 -9 1 C-6.0335058 -1.54270931 -3.58456954 -1.19485651 0 0 Z " fill="#B7B7B7" transform="translate(486,72)"/>
<path d="M0 0 C0.33 1.98 0.66 3.96 1 6 C1.66 6 2.32 6 3 6 C3.33 4.02 3.66 2.04 4 0 C9.29230769 -2.21538462 9.29230769 -2.21538462 12.875 -1.125 C13.57625 -0.75375 14.2775 -0.3825 15 0 C16.3364486 6.43925234 16.3364486 6.43925234 14.875 8.875 C12.34836176 10.39098295 10.992254 10.93350547 8 11 C5.20196722 9.88702785 2.60468824 8.50593638 0 7 C0 7.66 0 8.32 0 9 C-2.41021064 10.51754003 -3.68335622 11.02316906 -6.5625 10.8125 C-9.31191087 9.89602971 -10.50101314 9.49831143 -12 7 C-11.9375 3.4375 -11.9375 3.4375 -11 0 C-7.56205744 -3.305714 -4.08737988 -1.41486227 0 0 Z " fill="#B9B9B9" transform="translate(218,73)"/>
<path d="M0 0 C0.80824219 0.11988281 1.61648438 0.23976563 2.44921875 0.36328125 C3.06410156 0.47027344 3.67898438 0.57726562 4.3125 0.6875 C5.0625 3.9375 5.0625 3.9375 5.3125 7.6875 C3.375 10.125 3.375 10.125 1.3125 11.6875 C2.002803 14.69031178 2.002803 14.69031178 3.9375 15.9375 C5.3125 17.6875 5.3125 17.6875 5.25 21.25 C4.3125 24.6875 4.3125 24.6875 2.5625 26.1875 C-0.99486307 26.97802513 -3.45390915 26.42765451 -6.5625 24.5625 C-7.6875 22.6875 -7.6875 22.6875 -7.6875 19.1875 C-6.6875 15.6875 -6.6875 15.6875 -4.125 13.75 C-3.320625 13.399375 -2.51625 13.04875 -1.6875 12.6875 C-2.491875 12.336875 -3.29625 11.98625 -4.125 11.625 C-6.6875 9.6875 -6.6875 9.6875 -7.6875 6.1875 C-7.6875 2.6875 -7.6875 2.6875 -6.48046875 0.94921875 C-4.08416606 -0.73706833 -2.85278662 -0.45479207 0 0 Z " fill="#BBBBBB" transform="translate(468.6875,102.3125)"/>
<path d="M0 0 C1.65 0.33 3.3 0.66 5 1 C5 1.99 5 2.98 5 4 C5.515625 4.4125 6.03125 4.825 6.5625 5.25 C8 7 8 7 7.875 10.5625 C7 14 7 14 4 16 C4.33 16.66 4.66 17.32 5 18 C3.35 18.33 1.7 18.66 0 19 C0 17.68 0 16.36 0 15 C-1.32 14.67 -2.64 14.34 -4 14 C-4.6875 10.6875 -4.6875 10.6875 -5 7 C-3.6875 5.0625 -3.6875 5.0625 -2 4 C-1.34 4 -0.68 4 0 4 C0 2.68 0 1.36 0 0 Z " fill="#A5A5A5" transform="translate(76,98)"/>
<path d="M0 0 C1.125 6.75 1.125 6.75 0 9 C-0.66 9 -1.32 9 -2 9 C-2.33 10.32 -2.66 11.64 -3 13 C-6.89835017 11.70054994 -9.60392154 10.40980397 -12 7 C-12 3.375 -12 3.375 -11 0 C-7.56205744 -3.305714 -4.08737988 -1.41486227 0 0 Z " fill="#B5B5B5" transform="translate(173,118)"/>
<path d="M0 0 C0.66 0 1.32 0 2 0 C2 0.66 2 1.32 2 2 C3.65 2.33 5.3 2.66 7 3 C8.3364486 9.43925234 8.3364486 9.43925234 6.875 11.875 C4.50882618 13.29470429 2.75700808 13.7982677 0 14 C-3.32544781 12.85984646 -3.97788475 12.03317287 -6 9 C-5.76071053 6.44757898 -5.19260911 5.23448066 -3.5625 3.25 C-2 2 -2 2 0 2 C0 1.34 0 0.68 0 0 Z " fill="#BABABA" transform="translate(151,70)"/>
<path d="M0 0 C0.6875 3.3125 0.6875 3.3125 1 7 C-0.3125 8.9375 -0.3125 8.9375 -2 10 C-2.66 10 -3.32 10 -4 10 C-4 10.66 -4 11.32 -4 12 C-3.34 12.33 -2.68 12.66 -2 13 C-2.99 13 -3.98 13 -5 13 C-5 12.34 -5 11.68 -5 11 C-6.98 10.34 -8.96 9.68 -11 9 C-11.6875 5.6875 -11.6875 5.6875 -12 2 C-8.50246261 -2.99648199 -5.30417154 -1.66983178 0 0 Z " fill="#BCBCBC" transform="translate(353,73)"/>
<path d="M0 0 C2 1.0625 2 1.0625 3 3 C2.6875 6.6875 2.6875 6.6875 2 10 C0.68 10.33 -0.64 10.66 -2 11 C-2 11.66 -2 12.32 -2 13 C-1.34 13.33 -0.68 13.66 0 14 C-0.99 14 -1.98 14 -3 14 C-3 13.34 -3 12.68 -3 12 C-4.98 11.34 -6.96 10.68 -9 10 C-10.32296047 3.62573591 -10.32296047 3.62573591 -9 1.0625 C-5.90131981 -0.58367385 -3.43858351 -0.36841966 0 0 Z " fill="#BCBCBC" transform="translate(171,102)"/>
<path d="M0 0 C0.66 0 1.32 0 2 0 C2 0.66 2 1.32 2 2 C2.804375 2.144375 3.60875 2.28875 4.4375 2.4375 C7 3 7 3 8 4 C8.46060606 9.2969697 8.46060606 9.2969697 6.8125 11.8125 C4.48382011 13.33818682 2.7774038 13.79677533 0 14 C-2.25 13.5 -2.25 13.5 -4 12 C-4.9375 8.5625 -4.9375 8.5625 -5 5 C-3.6875 3.0625 -3.6875 3.0625 -2 2 C-1.34 2 -0.68 2 0 2 C0 1.34 0 0.68 0 0 Z " fill="#C8C8C8" transform="translate(301,85)"/>
<path d="M0 0 C1.875 1.125 1.875 1.125 3 3 C2.9375 6.5625 2.9375 6.5625 2 10 C0.3125 11.5 0.3125 11.5 -2 12 C-7.43478261 11.56521739 -7.43478261 11.56521739 -10 9 C-10.55979644 3.73791349 -10.55979644 3.73791349 -8.625 1.1875 C-5.39144133 -1.17548518 -3.83034011 -1.12107515 0 0 Z " fill="#BDBDBD" transform="translate(111,87)"/>
<path d="M0 0 C0.66 0 1.32 0 2 0 C2 0.66 2 1.32 2 2 C3.65 2.33 5.3 2.66 7 3 C8.3364486 9.43925234 8.3364486 9.43925234 6.875 11.875 C3.76640915 13.74015451 1.30736307 14.29052513 -2.25 13.5 C-4 12 -4 12 -4.9375 8.5625 C-5 5 -5 5 -3.6875 3.0625 C-2 2 -2 2 0 2 C0 1.34 0 0.68 0 0 Z " fill="#BFBFBF" transform="translate(91,70)"/>
<path d="M0 0 C0.6875 3.3125 0.6875 3.3125 1 7 C-0.3125 8.9375 -0.3125 8.9375 -2 10 C-2.66 10 -3.32 10 -4 10 C-4.33 10.99 -4.66 11.98 -5 13 C-5 12.34 -5 11.68 -5 11 C-6.98 10.34 -8.96 9.68 -11 9 C-11.6875 5.6875 -11.6875 5.6875 -12 2 C-8.50246261 -2.99648199 -5.30417154 -1.66983178 0 0 Z " fill="#C6C6C6" transform="translate(293,73)"/>
<path d="M0 0 C1.3438914 6.47511312 1.3438914 6.47511312 -0.1875 8.8125 C-0.785625 9.204375 -1.38375 9.59625 -2 10 C-2.61875 10.45375 -3.2375 10.9075 -3.875 11.375 C-6 12 -6 12 -8.6875 11.0625 C-11 9 -11 9 -12 5.5 C-12 2 -12 2 -10.6875 0.125 C-6.62426104 -2.58382598 -4.57784086 -1.44117212 0 0 Z " fill="#C3C3C3" transform="translate(353,133)"/>
<path d="M0 0 C1.3438914 6.47511312 1.3438914 6.47511312 -0.1875 8.8125 C-0.785625 9.204375 -1.38375 9.59625 -2 10 C-2.61875 10.45375 -3.2375 10.9075 -3.875 11.375 C-6 12 -6 12 -8.6875 11.0625 C-11 9 -11 9 -12 5.5 C-12 2 -12 2 -10.6875 0.125 C-6.62426104 -2.58382598 -4.57784086 -1.44117212 0 0 Z " fill="#C0C0C0" transform="translate(218,133)"/>
<path d="M0 0 C1.3438914 6.47511312 1.3438914 6.47511312 -0.1875 8.8125 C-0.785625 9.204375 -1.38375 9.59625 -2 10 C-2.61875 10.45375 -3.2375 10.9075 -3.875 11.375 C-6 12 -6 12 -8.6875 11.0625 C-11 9 -11 9 -12 5.5 C-12 2 -12 2 -10.6875 0.125 C-6.62426104 -2.58382598 -4.57784086 -1.44117212 0 0 Z " fill="#BCBCBC" transform="translate(173,133)"/>
<path d="M0 0 C0.75 3.25 0.75 3.25 1 7 C-0.5625 9.5 -0.5625 9.5 -3 11 C-6.17442218 10.93521587 -8.19571146 10.46700625 -10.9375 8.875 C-12.71594734 5.73656351 -11.91617823 3.35932018 -11 0 C-7.56205744 -3.305714 -4.08737988 -1.41486227 0 0 Z " fill="#CECECE" transform="translate(383,118)"/>
<path d="M0 0 C1.3364486 6.43925234 1.3364486 6.43925234 -0.125 8.875 C-3.23359085 10.74015451 -5.69263693 11.29052513 -9.25 10.5 C-11 9 -11 9 -11.9375 5.5625 C-12 2 -12 2 -10.6875 0.125 C-6.62426104 -2.58382598 -4.57784086 -1.44117212 0 0 Z " fill="#C0C0C0" transform="translate(128,103)"/>
<path d="M0 0 C0.75 3.25 0.75 3.25 1 7 C-0.5625 9.5 -0.5625 9.5 -3 11 C-6.17442218 10.93521587 -8.19571146 10.46700625 -10.9375 8.875 C-12.71594734 5.73656351 -11.91617823 3.35932018 -11 0 C-7.56205744 -3.305714 -4.08737988 -1.41486227 0 0 Z " fill="#C0C0C0" transform="translate(143,88)"/>
<path d="M0 0 C1.3364486 6.43925234 1.3364486 6.43925234 -0.125 8.875 C-2.49117382 10.29470429 -4.24299192 10.7982677 -7 11 C-9.3125 10.0625 -9.3125 10.0625 -11 9 C-11 8.34 -11 7.68 -11 7 C-11.66 6.67 -12.32 6.34 -13 6 C-11.56603774 0.50314465 -11.56603774 0.50314465 -9.3125 -1.5 C-5.86511711 -2.24538008 -3.27207766 -1.13264227 0 0 Z " fill="#CDCDCD" transform="translate(248,73)"/>
<path d="M0 0 C1.125 1.875 1.125 1.875 1.0625 5.4375 C0.125 8.875 0.125 8.875 -1.625 10.375 C-5.18236307 11.16552513 -7.64140915 10.61515451 -10.75 8.75 C-11.875 6.875 -11.875 6.875 -11.8125 3.3125 C-10.875 -0.125 -10.875 -0.125 -9.125 -1.625 C-5.56763693 -2.41552513 -3.10859085 -1.86515451 0 0 Z " fill="#B8B8B8" transform="translate(322.875,73.125)"/>
<path d="M0 0 C1.3364486 6.43925234 1.3364486 6.43925234 -0.125 8.875 C-3.23359085 10.74015451 -5.69263693 11.29052513 -9.25 10.5 C-11 9 -11 9 -11.9375 5.5625 C-12 2 -12 2 -10.6875 0.125 C-6.62426104 -2.58382598 -4.57784086 -1.44117212 0 0 Z " fill="#C9C9C9" transform="translate(473,58)"/>
<path d="M0 0 C0.33 0.66 0.66 1.32 1 2 C3.52733235 2.65555119 3.52733235 2.65555119 6 3 C7.3364486 9.43925234 7.3364486 9.43925234 5.875 11.875 C2.76640915 13.74015451 0.30736307 14.29052513 -3.25 13.5 C-5 12 -5 12 -5.9375 8.5625 C-6 5 -6 5 -4.75 3.1875 C-3.17217691 2.11683433 -1.58654575 1.05769716 0 0 Z " fill="#C0C0C0" transform="translate(422,40)"/>
<path d="M0 0 C1.3364486 6.43925234 1.3364486 6.43925234 -0.125 8.875 C-3.23359085 10.74015451 -5.69263693 11.29052513 -9.25 10.5 C-11 9 -11 9 -11.9375 5.5625 C-12 2 -12 2 -10.6875 0.125 C-6.62426104 -2.58382598 -4.57784086 -1.44117212 0 0 Z " fill="#C7C7C7" transform="translate(248,133)"/>
<path d="M0 0 C1.3364486 6.43925234 1.3364486 6.43925234 -0.125 8.875 C-3.23359085 10.74015451 -5.69263693 11.29052513 -9.25 10.5 C-11 9 -11 9 -11.9375 5.5625 C-12 2 -12 2 -10.6875 0.125 C-6.62426104 -2.58382598 -4.57784086 -1.44117212 0 0 Z " fill="#C2C2C2" transform="translate(503,133)"/>
<path d="M0 0 C1.3364486 6.43925234 1.3364486 6.43925234 -0.125 8.875 C-3.23359085 10.74015451 -5.69263693 11.29052513 -9.25 10.5 C-11 9 -11 9 -11.9375 5.5625 C-12 2 -12 2 -10.6875 0.125 C-6.62426104 -2.58382598 -4.57784086 -1.44117212 0 0 Z " fill="#C1C1C1" transform="translate(263,133)"/>
<path d="M0 0 C1.3364486 6.43925234 1.3364486 6.43925234 -0.125 8.875 C-3.23359085 10.74015451 -5.69263693 11.29052513 -9.25 10.5 C-11 9 -11 9 -11.9375 5.5625 C-12 2 -12 2 -10.6875 0.125 C-6.62426104 -2.58382598 -4.57784086 -1.44117212 0 0 Z " fill="#C1C1C1" transform="translate(233,133)"/>
<path d="M0 0 C1.3364486 6.43925234 1.3364486 6.43925234 -0.125 8.875 C-3.23359085 10.74015451 -5.69263693 11.29052513 -9.25 10.5 C-11 9 -11 9 -11.9375 5.5625 C-12 2 -12 2 -10.6875 0.125 C-6.62426104 -2.58382598 -4.57784086 -1.44117212 0 0 Z " fill="#CDCDCD" transform="translate(203,118)"/>
<path d="M0 0 C2 1.0625 2 1.0625 3 3 C2.6875 6.6875 2.6875 6.6875 2 10 C1.360625 10.103125 0.72125 10.20625 0.0625 10.3125 C-0.618125 10.539375 -1.29875 10.76625 -2 11 C-2.33 11.99 -2.66 12.98 -3 14 C-3 13.34 -3 12.68 -3 12 C-4.98 11.34 -6.96 10.68 -9 10 C-10.32296047 3.62573591 -10.32296047 3.62573591 -9 1.0625 C-5.90131981 -0.58367385 -3.43858351 -0.36841966 0 0 Z " fill="#C0C0C0" transform="translate(426,102)"/>
<path d="M0 0 C1.3364486 6.43925234 1.3364486 6.43925234 -0.125 8.875 C-3.23359085 10.74015451 -5.69263693 11.29052513 -9.25 10.5 C-11 9 -11 9 -11.9375 5.5625 C-12 2 -12 2 -10.6875 0.125 C-6.62426104 -2.58382598 -4.57784086 -1.44117212 0 0 Z " fill="#C1C1C1" transform="translate(368,103)"/>
<path d="M0 0 C1.3364486 6.43925234 1.3364486 6.43925234 -0.125 8.875 C-3.23359085 10.74015451 -5.69263693 11.29052513 -9.25 10.5 C-11 9 -11 9 -11.9375 5.5625 C-12 2 -12 2 -10.6875 0.125 C-6.62426104 -2.58382598 -4.57784086 -1.44117212 0 0 Z " fill="#C2C2C2" transform="translate(248,103)"/>
<path d="M0 0 C1.3364486 6.43925234 1.3364486 6.43925234 -0.125 8.875 C-3.23359085 10.74015451 -5.69263693 11.29052513 -9.25 10.5 C-11 9 -11 9 -11.9375 5.5625 C-12 2 -12 2 -10.6875 0.125 C-6.62426104 -2.58382598 -4.57784086 -1.44117212 0 0 Z " fill="#C2C2C2" transform="translate(233,103)"/>
<path d="M0 0 C1.3364486 6.43925234 1.3364486 6.43925234 -0.125 8.875 C-3.23359085 10.74015451 -5.69263693 11.29052513 -9.25 10.5 C-11 9 -11 9 -11.9375 5.5625 C-12 2 -12 2 -10.6875 0.125 C-6.62426104 -2.58382598 -4.57784086 -1.44117212 0 0 Z " fill="#C2C2C2" transform="translate(218,103)"/>
<path d="M0 0 C1.3364486 6.43925234 1.3364486 6.43925234 -0.125 8.875 C-3.23359085 10.74015451 -5.69263693 11.29052513 -9.25 10.5 C-11 9 -11 9 -11.9375 5.5625 C-12 2 -12 2 -10.6875 0.125 C-6.62426104 -2.58382598 -4.57784086 -1.44117212 0 0 Z " fill="#C1C1C1" transform="translate(383,88)"/>
<path d="M0 0 C1.3364486 6.43925234 1.3364486 6.43925234 -0.125 8.875 C-3.23359085 10.74015451 -5.69263693 11.29052513 -9.25 10.5 C-11 9 -11 9 -11.9375 5.5625 C-12 2 -12 2 -10.6875 0.125 C-6.62426104 -2.58382598 -4.57784086 -1.44117212 0 0 Z " fill="#C2C2C2" transform="translate(458,73)"/>
<path d="M0 0 C1.3364486 6.43925234 1.3364486 6.43925234 -0.125 8.875 C-3.23359085 10.74015451 -5.69263693 11.29052513 -9.25 10.5 C-11 9 -11 9 -11.9375 5.5625 C-12 2 -12 2 -10.6875 0.125 C-6.62426104 -2.58382598 -4.57784086 -1.44117212 0 0 Z " fill="#BCBCBC" transform="translate(353,58)"/>
<path d="M0 0 C3.94741379 1.55818966 3.94741379 1.55818966 5.375 3.9375 C5.3125 7.5 5.3125 7.5 4.375 10.9375 C2.04764764 12.93237345 0.84975877 12.97223845 -2.1875 12.75 C-4.87438496 11.85437168 -6.03664878 11.27822811 -7.625 8.9375 C-8.125 6.5 -8.125 6.5 -7.625 3.9375 C-5.11211175 1.20922133 -3.77767948 -0.08994475 0 0 Z " fill="#C1C1C1" transform="translate(78.625,56.0625)"/>
<path d="M0 0 C1.051875 0.4125 2.10375 0.825 3.1875 1.25 C4.5239486 7.68925234 4.5239486 7.68925234 3.0625 10.125 C-0.04609085 11.99015451 -2.50513693 12.54052513 -6.0625 11.75 C-7.8125 10.25 -7.8125 10.25 -8.875 6.875 C-8.8125 3.25 -8.8125 3.25 -6.8125 0.6875 C-3.8125 -0.75 -3.8125 -0.75 0 0 Z " fill="#BFBFBF" transform="translate(394.8125,131.75)"/>
<path d="M0 0 C1.051875 0.4125 2.10375 0.825 3.1875 1.25 C4.5239486 7.68925234 4.5239486 7.68925234 3.0625 10.125 C-0.04609085 11.99015451 -2.50513693 12.54052513 -6.0625 11.75 C-7.8125 10.25 -7.8125 10.25 -8.875 6.875 C-8.8125 3.25 -8.8125 3.25 -6.8125 0.6875 C-3.8125 -0.75 -3.8125 -0.75 0 0 Z " fill="#C1C1C1" transform="translate(484.8125,131.75)"/>
<path d="M0 0 C1.3364486 6.43925234 1.3364486 6.43925234 -0.125 8.875 C-2.572723 10.3436338 -4.12243866 10.93148663 -7 11 C-9.875 9.5 -9.875 9.5 -12 7 C-12.0625 3.375 -12.0625 3.375 -11 0 C-7.56205744 -3.305714 -4.08737988 -1.41486227 0 0 Z " fill="#C2C2C2" transform="translate(398,73)"/>
<path d="M0 0 C2 1.0625 2 1.0625 3 3 C2.9375 6.5625 2.9375 6.5625 2 10 C-0.32735236 11.99487345 -1.52524123 12.03473845 -4.5625 11.8125 C-7.31191087 10.89602971 -8.50101314 10.49831143 -10 8 C-9.8125 4.375 -9.8125 4.375 -9 1 C-5.95016004 -0.52491998 -3.3576631 -0.23562548 0 0 Z " fill="#C4C4C4" transform="translate(471,117)"/>
<path d="M0 0 C1.83414844 3.05691406 0.92763105 5.5409941 0.125 8.875 C-2.92483996 10.39991998 -5.5173369 10.11062548 -8.875 9.875 C-10.875 8.8125 -10.875 8.8125 -11.875 6.875 C-11.8125 3.3125 -11.8125 3.3125 -10.875 -0.125 C-7.36770617 -3.13125186 -3.74988162 -2.24992897 0 0 Z " fill="#CBCBCB" transform="translate(427.875,73.125)"/>
<path d="M0 0 C1.32296047 6.37426409 1.32296047 6.37426409 0 8.9375 C-3.09868019 10.58367385 -5.56141649 10.36841966 -9 10 C-11 8.9375 -11 8.9375 -12 7 C-11.9375 3.4375 -11.9375 3.4375 -11 0 C-7.56205744 -3.305714 -4.08737988 -1.41486227 0 0 Z " fill="#C5C5C5" transform="translate(293,118)"/>
<path d="M0 0 C1.9375 1.1875 1.9375 1.1875 3 3 C3.5 5.4375 3.5 5.4375 3 8 C0.8125 10.375 0.8125 10.375 -2 12 C-5.49583859 12 -6.69837552 11.26901643 -9.3125 8.9375 C-9.869375 8.298125 -10.42625 7.65875 -11 7 C-10.39816251 4.97954558 -9.72693904 2.97888961 -9 1 C-5.95016004 -0.52491998 -3.3576631 -0.23562548 0 0 Z " fill="#C4C4C4" transform="translate(201,102)"/>
<path d="M0 0 C1.32296047 6.37426409 1.32296047 6.37426409 0 8.9375 C-3.09868019 10.58367385 -5.56141649 10.36841966 -9 10 C-11 8.9375 -11 8.9375 -12 7 C-11.9375 3.4375 -11.9375 3.4375 -11 0 C-7.56205744 -3.305714 -4.08737988 -1.41486227 0 0 Z " fill="#C5C5C5" transform="translate(353,88)"/>
<path d="M0 0 C1.32296047 6.37426409 1.32296047 6.37426409 0 8.9375 C-3.09868019 10.58367385 -5.56141649 10.36841966 -9 10 C-11 8.9375 -11 8.9375 -12 7 C-11.9375 3.4375 -11.9375 3.4375 -11 0 C-7.56205744 -3.305714 -4.08737988 -1.41486227 0 0 Z " fill="#C5C5C5" transform="translate(293,88)"/>
<path d="M0 0 C1.32296047 6.37426409 1.32296047 6.37426409 0 8.9375 C-3.09868019 10.58367385 -5.56141649 10.36841966 -9 10 C-11 8.9375 -11 8.9375 -12 7 C-11.9375 3.4375 -11.9375 3.4375 -11 0 C-7.56205744 -3.305714 -4.08737988 -1.41486227 0 0 Z " fill="#C5C5C5" transform="translate(263,88)"/>
<path d="M0 0 C4.77487878 1.47587162 4.77487878 1.47587162 7 3 C8.125 6.5 8.125 6.5 8 10 C7 11.9375 7 11.9375 5 13 C1.56141649 13.36841966 -0.90131981 13.58367385 -4 11.9375 C-5.58495594 8.86664787 -4.68036707 6.27813225 -4 3 C-2.68 2.67 -1.36 2.34 0 2 C0 1.34 0 0.68 0 0 Z " fill="#C4C4C4" transform="translate(76,70)"/>
<path d="M0 0 C1.32296047 6.37426409 1.32296047 6.37426409 0 8.9375 C-3.09868019 10.58367385 -5.56141649 10.36841966 -9 10 C-11 8.9375 -11 8.9375 -12 7 C-11.9375 3.4375 -11.9375 3.4375 -11 0 C-7.56205744 -3.305714 -4.08737988 -1.41486227 0 0 Z " fill="#CECECE" transform="translate(473,73)"/>
<path d="M0 0 C2 1.0625 2 1.0625 3 3 C2.8125 6.625 2.8125 6.625 2 10 C-1.04983996 11.52491998 -3.6423369 11.23562548 -7 11 C-9 9.9375 -9 9.9375 -10 8 C-9.8125 4.375 -9.8125 4.375 -9 1 C-5.95016004 -0.52491998 -3.3576631 -0.23562548 0 0 Z " fill="#CECECE" transform="translate(81,117)"/>
<path d="M0 0 C0 2.97 0 5.94 0 9 C-4 11 -4 11 -6.5625 10.8125 C-9.31191087 9.89602971 -10.50101314 9.49831143 -12 7 C-11.9375 3.4375 -11.9375 3.4375 -11 0 C-7.4910105 -3.00770529 -3.87124264 -1.93562132 0 0 Z " fill="#D4D4D4" transform="translate(488,73)"/>
<path d="M0 0 C2 1.0625 2 1.0625 3 3 C2.8125 6.625 2.8125 6.625 2 10 C-1.04983996 11.52491998 -3.6423369 11.23562548 -7 11 C-9 9.9375 -9 9.9375 -10 8 C-9.8125 4.375 -9.8125 4.375 -9 1 C-5.95016004 -0.52491998 -3.3576631 -0.23562548 0 0 Z " fill="#D0D0D0" transform="translate(171,72)"/>
<path d="M0 0 C1.3364486 6.43925234 1.3364486 6.43925234 -0.125 8.875 C-2.54905826 10.32943496 -4.15496817 10.93060898 -7 11 C-9.3125 9.5 -9.3125 9.5 -11 7 C-11.25 3.25 -11.25 3.25 -11 0 C-7.07632508 -2.82504594 -4.32061114 -1.49559616 0 0 Z " fill="#CBCBCB" transform="translate(233,73)"/>
<path d="M0 0 C0 0.66 0 1.32 0 2 C0.66 2 1.32 2 2 2 C2.44041451 7.37305699 2.44041451 7.37305699 2 10 C-0.5 12 -0.5 12 -3 13 C-5.4375 11.9375 -5.4375 11.9375 -8 10 C-9.65745856 4.19889503 -9.65745856 4.19889503 -7.9375 1.0625 C-5.23787512 -0.41793945 -3.02429981 -0.20161999 0 0 Z " fill="#CBCBCB" transform="translate(425,132)"/>
<path d="M0 0 C-0.33 0.66 -0.66 1.32 -1 2 C-3.97 1.505 -3.97 1.505 -7 1 C-7.33 1.66 -7.66 2.32 -8 3 C-8.66 2.67 -9.32 2.34 -10 2 C-9.67 4.31 -9.34 6.62 -9 9 C-9.66 9 -10.32 9 -11 9 C-11 8.34 -11 7.68 -11 7 C-11.66 6.67 -12.32 6.34 -13 6 C-11.56603774 0.50314465 -11.56603774 0.50314465 -9.3125 -1.5 C-5.86511711 -2.24538008 -3.27207766 -1.13264227 0 0 Z " fill="#BBBBBB" transform="translate(248,73)"/>
<path d="M0 0 C0.99 0.33 1.98 0.66 3 1 C4.3364486 7.43925234 4.3364486 7.43925234 2.875 9.875 C0.54445187 11.27332888 -1.29121826 11.79163217 -4 12 C-4.66 11.34 -5.32 10.68 -6 10 C-3.69 9.01 -1.38 8.02 1 7 C1 6.01 1 5.02 1 4 C1.33 3.34 1.66 2.68 2 2 C1.34 2 0.68 2 0 2 C0 1.34 0 0.68 0 0 Z " fill="#A9A9A9" transform="translate(200,117)"/>
<path d="M0 0 C-0.33 0.66 -0.66 1.32 -1 2 C-3.97 1.505 -3.97 1.505 -7 1 C-7.33 1.66 -7.66 2.32 -8 3 C-8.66 2.67 -9.32 2.34 -10 2 C-9.67 2.99 -9.34 3.98 -9 5 C-9.66 5.99 -10.32 6.98 -11 8 C-11.33 7.67 -11.66 7.34 -12 7 C-11.8125 3.5625 -11.8125 3.5625 -11 0 C-7.4910105 -3.00770529 -3.87124264 -1.93562132 0 0 Z " fill="#A7A7A7" transform="translate(488,73)"/>
<path d="M0 0 C-2 3 -2 3 -4.5 3.9375 C-7.14520215 4.77763578 -7.14520215 4.77763578 -8.3125 7.125 C-8.539375 7.74375 -8.76625 8.3625 -9 9 C-9.33 8.67 -9.66 8.34 -10 8 C-9.8125 4.5625 -9.8125 4.5625 -9 1 C-5.99969508 -1.57168993 -3.64893445 -1.0135929 0 0 Z " fill="#B5B5B5" transform="translate(471,72)"/>
<path d="M0 0 C1.11375 0.556875 1.11375 0.556875 2.25 1.125 C1.26 1.62 1.26 1.62 0.25 2.125 C-0.40213292 4.14963255 -0.40213292 4.14963255 -0.75 6.125 C-3.75 6.125 -3.75 6.125 -5.4375 4.75 C-6.75 3.125 -6.75 3.125 -6.75 1.125 C-4.02098495 -0.69434337 -3.21400584 -1.02263822 0 0 Z " fill="#CBCBCB" transform="translate(289.75,137.875)"/>
<path d="M0 0 C1.11375 0.556875 1.11375 0.556875 2.25 1.125 C1.26 1.62 1.26 1.62 0.25 2.125 C-0.40213292 4.14963255 -0.40213292 4.14963255 -0.75 6.125 C-3.75 6.125 -3.75 6.125 -5.4375 4.75 C-6.75 3.125 -6.75 3.125 -6.75 1.125 C-4.02098495 -0.69434337 -3.21400584 -1.02263822 0 0 Z " fill="#CBCBCB" transform="translate(169.75,137.875)"/>
<path d="M0 0 C0.625 3.375 0.625 3.375 1 7 C0.34 7.66 -0.32 8.32 -1 9 C-1.33 6.36 -1.66 3.72 -2 1 C-5.34252724 0.92572162 -7.8035914 0.93453047 -11 2 C-11 1.34 -11 0.68 -11 0 C-7.07632508 -2.82504594 -4.32061114 -1.49559616 0 0 Z " fill="#979797" transform="translate(473,58)"/>
<path d="M0 0 C1.65 0 3.3 0 5 0 C5 1.65 5 3.3 5 5 C5.66 5 6.32 5 7 5 C7.625 8.375 7.625 8.375 8 12 C7.34 12.66 6.68 13.32 6 14 C6 11.36 6 8.72 6 6 C5.34 6 4.68 6 4 6 C4 5.34 4 4.68 4 4 C2.68 3.67 1.36 3.34 0 3 C0 2.01 0 1.02 0 0 Z " fill="#545454" transform="translate(421,128)"/>
<path d="M0 0 C0.66 0 1.32 0 2 0 C2 0.66 2 1.32 2 2 C2.66 2 3.32 2 4 2 C4 2.66 4 3.32 4 4 C2.02 4.33 0.04 4.66 -2 5 C-2 7.31 -2 9.62 -2 12 C-2.66 12 -3.32 12 -4 12 C-4.6875 8.6875 -4.6875 8.6875 -5 5 C-3.6875 3.0625 -3.6875 3.0625 -2 2 C-1.34 2 -0.68 2 0 2 C0 1.34 0 0.68 0 0 Z " fill="#9B9B9B" transform="translate(301,85)"/>
<path d="M0 0 C2.475 0.495 2.475 0.495 5 1 C5.625 4.375 5.625 4.375 6 8 C5.34 8.66 4.68 9.32 4 10 C4 9.01 4 8.02 4 7 C3.34 6.67 2.68 6.34 2 6 C1.27306096 4.02111039 0.60183749 2.02045442 0 0 Z " fill="#B3B3B3" transform="translate(243,132)"/>
<path d="M0 0 C1.32 0 2.64 0 4 0 C3.67 1.65 3.34 3.3 3 5 C0.69 5 -1.62 5 -4 5 C-3.67 4.34 -3.34 3.68 -3 3 C-2.01 3 -1.02 3 0 3 C0 2.01 0 1.02 0 0 Z " fill="#D5D5D5" transform="translate(78,123)"/>
<path d="M0 0 C0.66 0.33 1.32 0.66 2 1 C1.01 1.33 0.02 1.66 -1 2 C-0.34 4.31 0.32 6.62 1 9 C0.01 9.33 -0.98 9.66 -2 10 C-2.6875 6.6875 -2.6875 6.6875 -3 3 C-1.5625 1.0625 -1.5625 1.0625 0 0 Z " fill="#A1A1A1" transform="translate(419,72)"/>
<path d="M0 0 C0.66 0 1.32 0 2 0 C2 2.64 2 5.28 2 8 C0.0625 7.6875 0.0625 7.6875 -2 7 C-2.33 6.01 -2.66 5.02 -3 4 C-2.34 3.67 -1.68 3.34 -1 3 C-0.67 2.01 -0.34 1.02 0 0 Z " fill="#E1E1E1" transform="translate(320,74)"/>
<path d="M0 0 C2.64 0 5.28 0 8 0 C7.67 0.99 7.34 1.98 7 3 C5.35 3.33 3.7 3.66 2 4 C1.34 2.68 0.68 1.36 0 0 Z " fill="#151515" transform="translate(74,128)"/>
<path d="M0 0 C1.65 0 3.3 0 5 0 C5.33 1.65 5.66 3.3 6 5 C3.69 4.67 1.38 4.34 -1 4 C-0.67 2.68 -0.34 1.36 0 0 Z " fill="#202020" transform="translate(466,98)"/>
<path d="M0 0 C2.0625 0.4375 2.0625 0.4375 4 1 C3.34 2.98 2.68 4.96 2 7 C1.34 7 0.68 7 0 7 C-0.38133299 5.0085944 -0.71325582 3.00720923 -1 1 C-0.67 0.67 -0.34 0.34 0 0 Z " fill="#DADADA" transform="translate(388,133)"/>
<path d="M0 0 C2.475 0.495 2.475 0.495 5 1 C4.67 2.65 4.34 4.3 4 6 C3.01 5.67 2.02 5.34 1 5 C0.67 3.35 0.34 1.7 0 0 Z " fill="#C9C9C9" transform="translate(483,132)"/>
<path d="M0 0 C0.66 0 1.32 0 2 0 C2.33 1.65 2.66 3.3 3 5 C2.34 5 1.68 5 1 5 C1.33 6.32 1.66 7.64 2 9 C1.34 9 0.68 9 0 9 C-1.125 2.25 -1.125 2.25 0 0 Z " fill="#9C9C9C" transform="translate(372,118)"/>
<path d="M0 0 C0.66 0.33 1.32 0.66 2 1 C1.34 1.66 0.68 2.32 0 3 C-0.16677282 6.58343976 -0.16677282 6.58343976 0 10 C-0.66 10 -1.32 10 -2 10 C-2.6875 6.6875 -2.6875 6.6875 -3 3 C-1.5625 1.0625 -1.5625 1.0625 0 0 Z " fill="#999999" transform="translate(419,87)"/>
<path d="M0 0 C0.66 0.33 1.32 0.66 2 1 C1.01 1.33 0.02 1.66 -1 2 C-1 2.99 -1 3.98 -1 5 C-0.34 5.33 0.32 5.66 1 6 C0.34 6 -0.32 6 -1 6 C-0.67 7.32 -0.34 8.64 0 10 C-0.66 10 -1.32 10 -2 10 C-2.6875 6.6875 -2.6875 6.6875 -3 3 C-1.5625 1.0625 -1.5625 1.0625 0 0 Z " fill="#979797" transform="translate(284,72)"/>
<path d="M0 0 C-0.99 1.485 -0.99 1.485 -2 3 C-5.625 3.1875 -5.625 3.1875 -9 3 C-9 2.34 -9 1.68 -9 1 C-5.64919071 -1.10976881 -3.77897651 -1.0497157 0 0 Z " fill="#B6B6B6" transform="translate(351,72)"/>
<path d="M0 0 C-0.99 1.485 -0.99 1.485 -2 3 C-5.625 3.1875 -5.625 3.1875 -9 3 C-9 2.34 -9 1.68 -9 1 C-5.64919071 -1.10976881 -3.77897651 -1.0497157 0 0 Z " fill="#B7B7B7" transform="translate(231,72)"/>
<path d="M0 0 C0.99 0.33 1.98 0.66 3 1 C3.625 4.375 3.625 4.375 4 8 C3.34 8.66 2.68 9.32 2 10 C2 8.68 2 7.36 2 6 C1.34 5.67 0.68 5.34 0 5 C0.66 4.01 1.32 3.02 2 2 C1.34 2 0.68 2 0 2 C0 1.34 0 0.68 0 0 Z " fill="#949494" transform="translate(80,117)"/>
<path d="M0 0 C0.66 0.33 1.32 0.66 2 1 C1.01 1.33 0.02 1.66 -1 2 C-1 2.99 -1 3.98 -1 5 C-0.34 5.33 0.32 5.66 1 6 C0.34 6 -0.32 6 -1 6 C-1.33 7.32 -1.66 8.64 -2 10 C-2.6875 6.6875 -2.6875 6.6875 -3 3 C-1.5625 1.0625 -1.5625 1.0625 0 0 Z " fill="#979797" transform="translate(164,72)"/>
<path d="M0 0 C1.98 0 3.96 0 6 0 C6.33 0.66 6.66 1.32 7 2 C6.01 2.99 5.02 3.98 4 5 C3.34 4.34 2.68 3.68 2 3 C1.01 3 0.02 3 -1 3 C-0.67 2.01 -0.34 1.02 0 0 Z " fill="#E2E2E2" transform="translate(465,58)"/>
<path d="M0 0 C1.67542976 0.28604898 3.34385343 0.61781233 5 1 C5 1.99 5 2.98 5 4 C3.35 4 1.7 4 0 4 C-0.33 3.01 -0.66 2.02 -1 1 C-0.67 0.67 -0.34 0.34 0 0 Z " fill="#DBDBDB" transform="translate(344,124)"/>
<path d="M0 0 C0.66 0 1.32 0 2 0 C2 2.97 2 5.94 2 9 C1.34 9 0.68 9 0 9 C-1.125 2.25 -1.125 2.25 0 0 Z " fill="#969696" transform="translate(417,118)"/>
<path d="M0 0 C0.66 0 1.32 0 2 0 C2 2.97 2 5.94 2 9 C1.34 9 0.68 9 0 9 C0 8.34 0 7.68 0 7 C-0.66 6.67 -1.32 6.34 -2 6 C-1.34 4.02 -0.68 2.04 0 0 Z " fill="#898989" transform="translate(237,73)"/>
<path d="M0 0 C-3.26796627 2.70452381 -4.79796464 3 -9 3 C-9 2.34 -9 1.68 -9 1 C-5.64919071 -1.10976881 -3.77897651 -1.0497157 0 0 Z " fill="#B0B0B0" transform="translate(351,132)"/>
<path d="M0 0 C0.66 0.33 1.32 0.66 2 1 C2 1.66 2 2.32 2 3 C-1 5 -1 5 -3.1875 4.625 C-3.785625 4.41875 -4.38375 4.2125 -5 4 C-3.35 2.68 -1.7 1.36 0 0 Z " fill="#A2A2A2" transform="translate(381,124)"/>
<path d="M0 0 C1.98 0 3.96 0 6 0 C5.67 1.65 5.34 3.3 5 5 C4.01 4.34 3.02 3.68 2 3 C1.01 3 0.02 3 -1 3 C-0.67 2.01 -0.34 1.02 0 0 Z " fill="#E3E3E3" transform="translate(345,58)"/>
<path d="M0 0 C2 1 2 1 2 1 Z " fill="#000000" transform="translate(349,70)"/>
<path d="M0 0 C2 1 2 1 2 1 Z " fill="#000000" transform="translate(79,70)"/>
<path d="" fill="#000000" transform="translate(0,0)"/>
</svg>
